<mxfile host="app.diagrams.net" agent="Mozilla/5.0 (Windows NT 10.0; Win64; x64) AppleWebKit/537.36 (KHTML, like Gecko) Chrome/137.0.0.0 Safari/537.36" version="27.1.6">
  <diagram name="Page-1" id="JGHH9Em9OK0xMA-2mNCd">
    <mxGraphModel dx="2075" dy="778" grid="0" gridSize="10" guides="0" tooltips="1" connect="1" arrows="1" fold="1" page="0" pageScale="1" pageWidth="850" pageHeight="1100" math="0" shadow="0">
      <root>
        <mxCell id="0" />
        <mxCell id="1" parent="0" />
        <mxCell id="8hqKhyWd8W1IzdBUx66E-1" value="" style="html=1;verticalLabelPosition=bottom;align=center;labelBackgroundColor=#ffffff;verticalAlign=top;strokeWidth=2;strokeColor=#0080F0;shadow=0;dashed=0;shape=mxgraph.ios7.icons.cloud;" parent="1" vertex="1">
          <mxGeometry x="677.69" y="146" width="250.62" height="187" as="geometry" />
        </mxCell>
        <mxCell id="8hqKhyWd8W1IzdBUx66E-2" value="" style="rounded=1;whiteSpace=wrap;html=1;arcSize=40;dashed=1;strokeColor=#3333FF;" parent="1" vertex="1">
          <mxGeometry x="643" y="437" width="320" height="234" as="geometry" />
        </mxCell>
        <mxCell id="8hqKhyWd8W1IzdBUx66E-3" value="" style="rounded=1;whiteSpace=wrap;html=1;arcSize=12;dashed=1;strokeColor=light-dark(#00ff11, #ededed);" parent="1" vertex="1">
          <mxGeometry x="3" y="94" width="400" height="630" as="geometry" />
        </mxCell>
        <mxCell id="8hqKhyWd8W1IzdBUx66E-4" value="Học viên" style="shape=umlActor;verticalLabelPosition=bottom;verticalAlign=top;html=1;outlineConnect=0;" parent="1" vertex="1">
          <mxGeometry x="43" y="146" width="50" height="116" as="geometry" />
        </mxCell>
        <mxCell id="8hqKhyWd8W1IzdBUx66E-6" value="" style="verticalLabelPosition=bottom;verticalAlign=top;html=1;shadow=0;dashed=0;strokeWidth=1;shape=mxgraph.android.phone2;strokeColor=#82b366;fillColor=#d5e8d4;" parent="1" vertex="1">
          <mxGeometry x="293" y="146" width="70" height="120" as="geometry" />
        </mxCell>
        <mxCell id="8hqKhyWd8W1IzdBUx66E-7" value="" style="image;aspect=fixed;html=1;points=[];align=center;fontSize=12;image=img/lib/azure2/databases/SQL_Server.svg;" parent="1" vertex="1">
          <mxGeometry x="853" y="523" width="68" height="68" as="geometry" />
        </mxCell>
        <mxCell id="8hqKhyWd8W1IzdBUx66E-8" value="" style="sketch=0;aspect=fixed;pointerEvents=1;shadow=0;dashed=0;html=1;strokeColor=none;labelPosition=center;verticalLabelPosition=bottom;verticalAlign=top;align=center;fillColor=#00188D;shape=mxgraph.mscae.enterprise.server_generic" parent="1" vertex="1">
          <mxGeometry x="713" y="497" width="57.6" height="120" as="geometry" />
        </mxCell>
        <mxCell id="8hqKhyWd8W1IzdBUx66E-9" value="" style="verticalLabelPosition=bottom;html=1;verticalAlign=top;align=center;strokeColor=none;fillColor=#00BEF2;shape=mxgraph.azure.computer;pointerEvents=1;" parent="1" vertex="1">
          <mxGeometry x="691.8299999999999" y="708" width="99.93" height="80" as="geometry" />
        </mxCell>
        <mxCell id="8hqKhyWd8W1IzdBUx66E-10" value="" style="shape=flexArrow;endArrow=classic;startArrow=classic;html=1;rounded=0;entryX=0.003;entryY=0.674;entryDx=0;entryDy=0;entryPerimeter=0;exitX=1.004;exitY=0.287;exitDx=0;exitDy=0;exitPerimeter=0;" parent="1" source="8hqKhyWd8W1IzdBUx66E-3" target="8hqKhyWd8W1IzdBUx66E-1" edge="1">
          <mxGeometry width="100" height="100" relative="1" as="geometry">
            <mxPoint x="513" y="419" as="sourcePoint" />
            <mxPoint x="683" y="-111" as="targetPoint" />
          </mxGeometry>
        </mxCell>
        <mxCell id="8hqKhyWd8W1IzdBUx66E-11" value="" style="shape=flexArrow;endArrow=classic;startArrow=classic;html=1;rounded=0;entryX=0.5;entryY=0;entryDx=0;entryDy=0;exitX=0.5;exitY=1.006;exitDx=0;exitDy=0;exitPerimeter=0;" parent="1" source="8hqKhyWd8W1IzdBUx66E-1" target="8hqKhyWd8W1IzdBUx66E-2" edge="1">
          <mxGeometry width="100" height="100" relative="1" as="geometry">
            <mxPoint x="814.25" y="217" as="sourcePoint" />
            <mxPoint x="1014.2499999999995" y="101" as="targetPoint" />
          </mxGeometry>
        </mxCell>
        <mxCell id="8hqKhyWd8W1IzdBUx66E-12" value="" style="endArrow=classic;startArrow=classic;html=1;rounded=0;entryX=0.033;entryY=0.491;entryDx=0;entryDy=0;entryPerimeter=0;exitX=1;exitY=0.5;exitDx=0;exitDy=0;exitPerimeter=0;" parent="1" source="8hqKhyWd8W1IzdBUx66E-8" target="8hqKhyWd8W1IzdBUx66E-7" edge="1">
          <mxGeometry width="50" height="50" relative="1" as="geometry">
            <mxPoint x="813" y="592" as="sourcePoint" />
            <mxPoint x="863" y="542" as="targetPoint" />
          </mxGeometry>
        </mxCell>
        <mxCell id="8hqKhyWd8W1IzdBUx66E-13" value="" style="endArrow=classic;startArrow=classic;html=1;rounded=0;entryX=0.5;entryY=0;entryDx=0;entryDy=0;entryPerimeter=0;exitX=0.5;exitY=1;exitDx=0;exitDy=0;exitPerimeter=0;" parent="1" source="8hqKhyWd8W1IzdBUx66E-8" target="8hqKhyWd8W1IzdBUx66E-9" edge="1">
          <mxGeometry width="50" height="50" relative="1" as="geometry">
            <mxPoint x="832.9300000000001" y="745" as="sourcePoint" />
            <mxPoint x="986.9300000000001" y="744" as="targetPoint" />
          </mxGeometry>
        </mxCell>
        <mxCell id="8hqKhyWd8W1IzdBUx66E-14" value="" style="sketch=0;shadow=0;dashed=0;html=1;strokeColor=none;fillColor=#505050;labelPosition=center;verticalLabelPosition=bottom;verticalAlign=top;outlineConnect=0;align=center;shape=mxgraph.office.databases.database_server_blue;" parent="1" vertex="1">
          <mxGeometry x="782.31" y="221" width="55.99" height="72" as="geometry" />
        </mxCell>
        <mxCell id="8hqKhyWd8W1IzdBUx66E-15" value="" style="endArrow=classic;html=1;rounded=0;exitX=1;exitY=0.3333333333333333;exitDx=0;exitDy=0;exitPerimeter=0;" parent="1" source="8hqKhyWd8W1IzdBUx66E-4" target="8hqKhyWd8W1IzdBUx66E-5" edge="1">
          <mxGeometry width="50" height="50" relative="1" as="geometry">
            <mxPoint x="133" y="219" as="sourcePoint" />
            <mxPoint x="183" y="169" as="targetPoint" />
            <Array as="points">
              <mxPoint x="93" y="204" />
            </Array>
          </mxGeometry>
        </mxCell>
        <mxCell id="8hqKhyWd8W1IzdBUx66E-16" value="" style="endArrow=classic;html=1;rounded=0;entryX=0.006;entryY=0.489;entryDx=0;entryDy=0;entryPerimeter=0;exitX=1;exitY=0.5;exitDx=0;exitDy=0;" parent="1" source="8hqKhyWd8W1IzdBUx66E-5" target="8hqKhyWd8W1IzdBUx66E-6" edge="1">
          <mxGeometry width="50" height="50" relative="1" as="geometry">
            <mxPoint x="233" y="519" as="sourcePoint" />
            <mxPoint x="283" y="469" as="targetPoint" />
          </mxGeometry>
        </mxCell>
        <mxCell id="8hqKhyWd8W1IzdBUx66E-17" value="" style="shape=flexArrow;endArrow=classic;startArrow=classic;html=1;rounded=0;entryX=0;entryY=0.5;entryDx=0;entryDy=0;exitX=1.005;exitY=0.73;exitDx=0;exitDy=0;exitPerimeter=0;" parent="1" source="8hqKhyWd8W1IzdBUx66E-3" target="8hqKhyWd8W1IzdBUx66E-2" edge="1">
          <mxGeometry width="100" height="100" relative="1" as="geometry">
            <mxPoint x="471" y="555" as="sourcePoint" />
            <mxPoint x="722" y="575" as="targetPoint" />
          </mxGeometry>
        </mxCell>
        <mxCell id="8hqKhyWd8W1IzdBUx66E-18" value="Học viên" style="shape=umlActor;verticalLabelPosition=bottom;verticalAlign=top;html=1;outlineConnect=0;" parent="1" vertex="1">
          <mxGeometry x="43" y="346" width="50" height="116" as="geometry" />
        </mxCell>
        <mxCell id="8hqKhyWd8W1IzdBUx66E-20" value="" style="verticalLabelPosition=bottom;verticalAlign=top;html=1;shadow=0;dashed=0;strokeWidth=1;shape=mxgraph.android.phone2;strokeColor=#82b366;fillColor=#d5e8d4;" parent="1" vertex="1">
          <mxGeometry x="293" y="346" width="70" height="120" as="geometry" />
        </mxCell>
        <mxCell id="8hqKhyWd8W1IzdBUx66E-21" value="" style="endArrow=classic;html=1;rounded=0;exitX=1;exitY=0.3333333333333333;exitDx=0;exitDy=0;exitPerimeter=0;" parent="1" source="8hqKhyWd8W1IzdBUx66E-18" target="8hqKhyWd8W1IzdBUx66E-19" edge="1">
          <mxGeometry width="50" height="50" relative="1" as="geometry">
            <mxPoint x="133" y="419" as="sourcePoint" />
            <mxPoint x="183" y="369" as="targetPoint" />
            <Array as="points">
              <mxPoint x="93" y="404" />
            </Array>
          </mxGeometry>
        </mxCell>
        <mxCell id="8hqKhyWd8W1IzdBUx66E-22" value="" style="endArrow=classic;html=1;rounded=0;entryX=0.006;entryY=0.489;entryDx=0;entryDy=0;entryPerimeter=0;exitX=1;exitY=0.5;exitDx=0;exitDy=0;" parent="1" source="8hqKhyWd8W1IzdBUx66E-19" target="8hqKhyWd8W1IzdBUx66E-20" edge="1">
          <mxGeometry width="50" height="50" relative="1" as="geometry">
            <mxPoint x="233" y="719" as="sourcePoint" />
            <mxPoint x="283" y="669" as="targetPoint" />
          </mxGeometry>
        </mxCell>
        <mxCell id="8hqKhyWd8W1IzdBUx66E-23" value="Học viên" style="shape=umlActor;verticalLabelPosition=bottom;verticalAlign=top;html=1;outlineConnect=0;" parent="1" vertex="1">
          <mxGeometry x="43" y="546" width="50" height="116" as="geometry" />
        </mxCell>
        <mxCell id="8hqKhyWd8W1IzdBUx66E-25" value="" style="verticalLabelPosition=bottom;verticalAlign=top;html=1;shadow=0;dashed=0;strokeWidth=1;shape=mxgraph.android.phone2;strokeColor=#82b366;fillColor=#d5e8d4;" parent="1" vertex="1">
          <mxGeometry x="293" y="546" width="70" height="120" as="geometry" />
        </mxCell>
        <mxCell id="8hqKhyWd8W1IzdBUx66E-26" value="" style="endArrow=classic;html=1;rounded=0;exitX=1;exitY=0.3333333333333333;exitDx=0;exitDy=0;exitPerimeter=0;" parent="1" source="8hqKhyWd8W1IzdBUx66E-23" target="8hqKhyWd8W1IzdBUx66E-24" edge="1">
          <mxGeometry width="50" height="50" relative="1" as="geometry">
            <mxPoint x="133" y="619" as="sourcePoint" />
            <mxPoint x="183" y="569" as="targetPoint" />
            <Array as="points">
              <mxPoint x="93" y="604" />
            </Array>
          </mxGeometry>
        </mxCell>
        <mxCell id="8hqKhyWd8W1IzdBUx66E-27" value="" style="endArrow=classic;html=1;rounded=0;entryX=0.006;entryY=0.489;entryDx=0;entryDy=0;entryPerimeter=0;exitX=1;exitY=0.5;exitDx=0;exitDy=0;" parent="1" source="8hqKhyWd8W1IzdBUx66E-24" target="8hqKhyWd8W1IzdBUx66E-25" edge="1">
          <mxGeometry width="50" height="50" relative="1" as="geometry">
            <mxPoint x="233" y="919" as="sourcePoint" />
            <mxPoint x="283" y="869" as="targetPoint" />
          </mxGeometry>
        </mxCell>
        <mxCell id="8hqKhyWd8W1IzdBUx66E-28" value="" style="dashed=0;outlineConnect=0;html=1;align=center;labelPosition=center;verticalLabelPosition=bottom;verticalAlign=top;shape=mxgraph.weblogos.android;fillColor=#A4CA39;strokeColor=none" parent="1" vertex="1">
          <mxGeometry x="303" y="576" width="50" height="60" as="geometry" />
        </mxCell>
        <mxCell id="8hqKhyWd8W1IzdBUx66E-29" value="" style="dashed=0;outlineConnect=0;html=1;align=center;labelPosition=center;verticalLabelPosition=bottom;verticalAlign=top;shape=mxgraph.weblogos.android;fillColor=#A4CA39;strokeColor=none" parent="1" vertex="1">
          <mxGeometry x="303" y="376" width="50" height="60" as="geometry" />
        </mxCell>
        <mxCell id="8hqKhyWd8W1IzdBUx66E-30" value="" style="dashed=0;outlineConnect=0;html=1;align=center;labelPosition=center;verticalLabelPosition=bottom;verticalAlign=top;shape=mxgraph.weblogos.android;fillColor=#A4CA39;strokeColor=none" parent="1" vertex="1">
          <mxGeometry x="303" y="176" width="50" height="60" as="geometry" />
        </mxCell>
        <mxCell id="S1b_D43g4GeRXbvRA9rj-1" value="&lt;font style=&quot;font-size: 18px; color: rgb(51, 153, 255);&quot;&gt;mongoDB atlas&lt;/font&gt;" style="text;html=1;align=center;verticalAlign=middle;resizable=0;points=[];autosize=1;strokeColor=none;fillColor=none;" parent="1" vertex="1">
          <mxGeometry x="735.31" y="293" width="150" height="40" as="geometry" />
        </mxCell>
        <mxCell id="8hqKhyWd8W1IzdBUx66E-5" value="" style="shape=image;html=1;verticalAlign=top;verticalLabelPosition=bottom;labelBackgroundColor=#ffffff;imageAspect=0;aspect=fixed;image=https://cdn0.iconfinder.com/data/icons/devices-42/512/Watch-128.png;imageBorder=light-dark(#0bf207, #ededed);" parent="1" vertex="1">
          <mxGeometry x="143" y="156.5" width="95" height="95" as="geometry" />
        </mxCell>
        <mxCell id="8hqKhyWd8W1IzdBUx66E-19" value="" style="shape=image;html=1;verticalAlign=top;verticalLabelPosition=bottom;labelBackgroundColor=#ffffff;imageAspect=0;image=https://cdn0.iconfinder.com/data/icons/devices-42/512/Watch-128.png;imageBorder=light-dark(#0bf207, #ededed);aspect=fixed;" parent="1" vertex="1">
          <mxGeometry x="143" y="356.5" width="95" height="95" as="geometry" />
        </mxCell>
        <mxCell id="8hqKhyWd8W1IzdBUx66E-24" value="" style="shape=image;html=1;verticalAlign=top;verticalLabelPosition=bottom;labelBackgroundColor=#ffffff;imageAspect=0;aspect=fixed;image=https://cdn0.iconfinder.com/data/icons/devices-42/512/Watch-128.png;imageBorder=light-dark(#0bf207, #ededed);" parent="1" vertex="1">
          <mxGeometry x="143" y="556.5" width="95" height="95" as="geometry" />
        </mxCell>
      </root>
    </mxGraphModel>
  </diagram>
</mxfile>
